<mxfile host="app.diagrams.net" agent="Mozilla/5.0 (X11; Linux x86_64) AppleWebKit/537.36 (KHTML, like Gecko) Chrome/138.0.0.0 Safari/537.36" version="28.2.8">
  <diagram name="Page-1" id="wQdYjDTQ9otpaTvRJ1rn">
    <mxGraphModel dx="806" dy="481" grid="1" gridSize="10" guides="1" tooltips="1" connect="1" arrows="1" fold="1" page="1" pageScale="1" pageWidth="1100" pageHeight="850" math="0" shadow="0">
      <root>
        <mxCell id="0" />
        <mxCell id="1" parent="0" />
        <mxCell id="Loh9Il3-jM7u6gasKObG-1" value="Actor" style="shape=umlActor;verticalLabelPosition=bottom;verticalAlign=top;html=1;outlineConnect=0;" vertex="1" parent="1">
          <mxGeometry x="180" y="200" width="30" height="40" as="geometry" />
        </mxCell>
        <mxCell id="Loh9Il3-jM7u6gasKObG-10" style="edgeStyle=orthogonalEdgeStyle;rounded=0;orthogonalLoop=1;jettySize=auto;html=1;entryX=0;entryY=0.5;entryDx=0;entryDy=0;" edge="1" parent="1" source="Loh9Il3-jM7u6gasKObG-3" target="Loh9Il3-jM7u6gasKObG-4">
          <mxGeometry relative="1" as="geometry" />
        </mxCell>
        <mxCell id="Loh9Il3-jM7u6gasKObG-3" value="User browser" style="image;aspect=fixed;html=1;points=[];align=center;fontSize=12;image=img/lib/azure2/general/Browser.svg;" vertex="1" parent="1">
          <mxGeometry x="260" y="200" width="65" height="52" as="geometry" />
        </mxCell>
        <mxCell id="Loh9Il3-jM7u6gasKObG-11" style="edgeStyle=orthogonalEdgeStyle;rounded=0;orthogonalLoop=1;jettySize=auto;html=1;entryX=0;entryY=0.5;entryDx=0;entryDy=0;" edge="1" parent="1" source="Loh9Il3-jM7u6gasKObG-4" target="Loh9Il3-jM7u6gasKObG-5">
          <mxGeometry relative="1" as="geometry" />
        </mxCell>
        <mxCell id="Loh9Il3-jM7u6gasKObG-4" value="&lt;div&gt;&lt;br&gt;&lt;/div&gt;&lt;div&gt;&lt;span style=&quot;background-color: transparent; color: light-dark(rgb(0, 0, 0), rgb(255, 255, 255));&quot;&gt;Secure notes app&lt;/span&gt;&lt;/div&gt;&lt;div&gt;&lt;br&gt;&lt;/div&gt;&lt;div&gt;&lt;div&gt;Endpoints: /auth, /notes&lt;/div&gt;&lt;/div&gt;&lt;div&gt;&lt;br&gt;&lt;/div&gt;" style="rounded=0;whiteSpace=wrap;html=1;" vertex="1" parent="1">
          <mxGeometry x="370" y="200" width="120" height="70" as="geometry" />
        </mxCell>
        <mxCell id="Loh9Il3-jM7u6gasKObG-5" value="PostgreSQL Database" style="shape=datastore;whiteSpace=wrap;html=1;" vertex="1" parent="1">
          <mxGeometry x="540" y="200" width="70" height="70" as="geometry" />
        </mxCell>
        <mxCell id="Loh9Il3-jM7u6gasKObG-8" value="GITHUB" style="ellipse;shape=cloud;whiteSpace=wrap;html=1;" vertex="1" parent="1">
          <mxGeometry x="350" y="70" width="120" height="80" as="geometry" />
        </mxCell>
        <mxCell id="Loh9Il3-jM7u6gasKObG-9" style="edgeStyle=orthogonalEdgeStyle;rounded=0;orthogonalLoop=1;jettySize=auto;html=1;exitX=0.5;exitY=0.5;exitDx=0;exitDy=0;exitPerimeter=0;entryX=-0.063;entryY=0.431;entryDx=0;entryDy=0;entryPerimeter=0;" edge="1" parent="1" source="Loh9Il3-jM7u6gasKObG-1" target="Loh9Il3-jM7u6gasKObG-3">
          <mxGeometry relative="1" as="geometry" />
        </mxCell>
        <mxCell id="Loh9Il3-jM7u6gasKObG-12" style="edgeStyle=orthogonalEdgeStyle;rounded=0;orthogonalLoop=1;jettySize=auto;html=1;entryX=0.327;entryY=0.062;entryDx=0;entryDy=0;entryPerimeter=0;" edge="1" parent="1" source="Loh9Il3-jM7u6gasKObG-8" target="Loh9Il3-jM7u6gasKObG-4">
          <mxGeometry relative="1" as="geometry" />
        </mxCell>
      </root>
    </mxGraphModel>
  </diagram>
</mxfile>
